<?xml version="1.0" encoding="UTF-8" standalone="no"?>
<!-- Created with Inkscape (http://www.inkscape.org/) -->

<svg
   xmlns:dc="http://purl.org/dc/elements/1.1/"
   xmlns:cc="http://creativecommons.org/ns#"
   xmlns:rdf="http://www.w3.org/1999/02/22-rdf-syntax-ns#"
   xmlns:svg="http://www.w3.org/2000/svg"
   xmlns="http://www.w3.org/2000/svg"
   xmlns:sodipodi="http://sodipodi.sourceforge.net/DTD/sodipodi-0.dtd"
   xmlns:inkscape="http://www.inkscape.org/namespaces/inkscape"
   id="svg2"
   version="1.1"
   inkscape:version="0.48.2 r9819"
   width="682.5"
   height="545"
   xml:space="preserve"
   sodipodi:docname="Power_dBm_fwm_convEffMax_29p5dB_.eps"><metadata
     id="metadata8"><rdf:RDF><cc:Work
         rdf:about=""><dc:format>image/svg+xml</dc:format><dc:type
           rdf:resource="http://purl.org/dc/dcmitype/StillImage" /><dc:title></dc:title></cc:Work></rdf:RDF></metadata><defs
     id="defs6"><clipPath
       clipPathUnits="userSpaceOnUse"
       id="clipPath18"><path
         d="m 0,7.59766 5460,0 0,4352.40004 -5460,0 L 0,7.59766 z"
         id="path20" /></clipPath><clipPath
       clipPathUnits="userSpaceOnUse"
       id="clipPath152"><path
         d="m 741.598,4006 4466.402,0 0,-3525.602 -4466.402,0 0,3525.602 z"
         id="path154" /></clipPath><clipPath
       clipPathUnits="userSpaceOnUse"
       id="clipPath168"><path
         d="m 0,7 0,4353 5460,0 L 5460,7 0,7 z"
         id="path170" /></clipPath></defs><sodipodi:namedview
     pagecolor="#ffffff"
     bordercolor="#666666"
     borderopacity="1"
     objecttolerance="10"
     gridtolerance="10"
     guidetolerance="10"
     inkscape:pageopacity="0"
     inkscape:pageshadow="2"
     inkscape:window-width="1280"
     inkscape:window-height="1000"
     id="namedview4"
     showgrid="false"
     inkscape:zoom="0.86605505"
     inkscape:cx="211.92158"
     inkscape:cy="404.34651"
     inkscape:window-x="0"
     inkscape:window-y="24"
     inkscape:window-maximized="1"
     inkscape:current-layer="g10" /><g
     id="g10"
     inkscape:groupmode="layer"
     inkscape:label="ink_ext_XXXXXX"
     transform="matrix(1.25,0,0,-1.25,0,545)"><g
       id="g12"
       transform="scale(0.1,0.1)"><g
         id="g14"><g
           id="g16"
           clip-path="url(#clipPath18)"><path
             d="m 0,7.59766 5460,0 0,4322.39004 -5460,0 L 0,7.59766 z"
             style="fill:#ffffff;fill-opacity:1;fill-rule:nonzero;stroke:none"
             id="path22" /><path
             d="m 741.598,482.797 4464,0 0,3523.2 -4464,0 0,-3523.2 z"
             style="fill:#ffffff;fill-opacity:1;fill-rule:evenodd;stroke:none"
             id="path24" /><path
             d="m 741.598,482.797 0,3523.203 4464.002,0 0,-3523.203 -4464.002,0"
             style="fill:none;stroke:#ffffff;stroke-opacity:1;stroke-width:4.99999;stroke-linecap:butt;stroke-linejoin:round;stroke-miterlimit:10;stroke-dasharray:none"
             id="path26" /><path
             d="m 741.598,482.797 4464.002,0"
             style="fill:none;stroke:#000000;stroke-opacity:1;stroke-width:4.99999;stroke-linecap:butt;stroke-linejoin:round;stroke-miterlimit:10;stroke-dasharray:none"
             id="path28" /><path
             d="m 741.598,4006 4464.002,0"
             style="fill:none;stroke:#000000;stroke-opacity:1;stroke-width:4.99999;stroke-linecap:butt;stroke-linejoin:round;stroke-miterlimit:10;stroke-dasharray:none"
             id="path30" /><path
             d="m 741.598,482.797 0,3523.203"
             style="fill:none;stroke:#000000;stroke-opacity:1;stroke-width:4.99999;stroke-linecap:butt;stroke-linejoin:round;stroke-miterlimit:10;stroke-dasharray:none"
             id="path32" /><path
             d="m 5205.6,482.797 0,3523.203"
             style="fill:none;stroke:#000000;stroke-opacity:1;stroke-width:4.99999;stroke-linecap:butt;stroke-linejoin:round;stroke-miterlimit:10;stroke-dasharray:none"
             id="path34" /><path
             d="m 741.598,482.797 4464.002,0"
             style="fill:none;stroke:#000000;stroke-opacity:1;stroke-width:4.99999;stroke-linecap:butt;stroke-linejoin:round;stroke-miterlimit:10;stroke-dasharray:none"
             id="path36" /><path
             d="m 741.598,482.797 0,3523.203"
             style="fill:none;stroke:#000000;stroke-opacity:1;stroke-width:4.99999;stroke-linecap:butt;stroke-linejoin:round;stroke-miterlimit:10;stroke-dasharray:none"
             id="path38" /><path
             d="m 741.598,482.797 0,45.601"
             style="fill:none;stroke:#000000;stroke-opacity:1;stroke-width:4.99999;stroke-linecap:butt;stroke-linejoin:round;stroke-miterlimit:10;stroke-dasharray:none"
             id="path40" /><path
             d="m 741.598,4006 0,-43.2"
             style="fill:none;stroke:#000000;stroke-opacity:1;stroke-width:4.99999;stroke-linecap:butt;stroke-linejoin:round;stroke-miterlimit:10;stroke-dasharray:none"
             id="path42" /><g
             id="g44"
             transform="scale(10,10)"><text
   transform="matrix(1,0,0,-1,52.0801,26.9199)"
   id="text46"><tspan
     style="fill:#000000;fill-opacity:1;fill-rule:nonzero;stroke:none;font-family:Helvetica;font-variant:normal;font-weight:normal;font-size:20;writing-mode:lr;-inkscape-font-specification:Helvetica"
     x="0 11.12 22.24 33.36"
     y="0"
     sodipodi:role="line"
     id="tspan48">1562</tspan></text>

</g><path
             d="m 2229.6,482.797 0,45.601"
             style="fill:none;stroke:#000000;stroke-opacity:1;stroke-width:4.99999;stroke-linecap:butt;stroke-linejoin:round;stroke-miterlimit:10;stroke-dasharray:none"
             id="path50" /><path
             d="m 2229.6,4006 0,-43.2"
             style="fill:none;stroke:#000000;stroke-opacity:1;stroke-width:4.99999;stroke-linecap:butt;stroke-linejoin:round;stroke-miterlimit:10;stroke-dasharray:none"
             id="path52" /><g
             id="g54"
             transform="scale(10,10)"><text
   transform="matrix(1,0,0,-1,200.88,26.9199)"
   id="text56"><tspan
     style="fill:#000000;fill-opacity:1;fill-rule:nonzero;stroke:none;font-family:Helvetica;font-variant:normal;font-weight:normal;font-size:20;writing-mode:lr;-inkscape-font-specification:Helvetica"
     x="0 11.12 22.24 33.36"
     y="0"
     sodipodi:role="line"
     id="tspan58">1564</tspan></text>

</g><path
             d="m 3717.6,482.797 0,45.601"
             style="fill:none;stroke:#000000;stroke-opacity:1;stroke-width:4.99999;stroke-linecap:butt;stroke-linejoin:round;stroke-miterlimit:10;stroke-dasharray:none"
             id="path60" /><path
             d="m 3717.6,4006 0,-43.2"
             style="fill:none;stroke:#000000;stroke-opacity:1;stroke-width:4.99999;stroke-linecap:butt;stroke-linejoin:round;stroke-miterlimit:10;stroke-dasharray:none"
             id="path62" /><g
             id="g64"
             transform="scale(10,10)"><text
   transform="matrix(1,0,0,-1,349.68,26.9199)"
   id="text66"><tspan
     style="fill:#000000;fill-opacity:1;fill-rule:nonzero;stroke:none;font-family:Helvetica;font-variant:normal;font-weight:normal;font-size:20;writing-mode:lr;-inkscape-font-specification:Helvetica"
     x="0 11.12 22.24 33.36"
     y="0"
     sodipodi:role="line"
     id="tspan68">1566</tspan></text>

</g><path
             d="m 5205.6,482.797 0,45.601"
             style="fill:none;stroke:#000000;stroke-opacity:1;stroke-width:4.99999;stroke-linecap:butt;stroke-linejoin:round;stroke-miterlimit:10;stroke-dasharray:none"
             id="path70" /><path
             d="m 5205.6,4006 0,-43.2"
             style="fill:none;stroke:#000000;stroke-opacity:1;stroke-width:4.99999;stroke-linecap:butt;stroke-linejoin:round;stroke-miterlimit:10;stroke-dasharray:none"
             id="path72" /><g
             id="g74"
             transform="scale(10,10)"><text
   transform="matrix(1,0,0,-1,498.48,26.9199)"
   id="text76"><tspan
     style="fill:#000000;fill-opacity:1;fill-rule:nonzero;stroke:none;font-family:Helvetica;font-variant:normal;font-weight:normal;font-size:20;writing-mode:lr;-inkscape-font-specification:Helvetica"
     x="0 11.12 22.24 33.36"
     y="0"
     sodipodi:role="line"
     id="tspan78">1568</tspan></text>

</g><path
             d="m 741.598,482.797 43.203,0"
             style="fill:none;stroke:#000000;stroke-opacity:1;stroke-width:4.99999;stroke-linecap:butt;stroke-linejoin:round;stroke-miterlimit:10;stroke-dasharray:none"
             id="path80" /><path
             d="m 5205.6,482.797 -45.6,0"
             style="fill:none;stroke:#000000;stroke-opacity:1;stroke-width:4.99999;stroke-linecap:butt;stroke-linejoin:round;stroke-miterlimit:10;stroke-dasharray:none"
             id="path82" /><g
             id="g84"
             transform="scale(10,10)"><text
   transform="matrix(1,0,0,-1,26.4,41.0797)"
   id="text86"><tspan
     style="fill:#000000;fill-opacity:1;fill-rule:nonzero;stroke:none;font-family:Helvetica;font-variant:normal;font-weight:normal;font-size:20;writing-mode:lr;-inkscape-font-specification:Helvetica"
     x="0 11.68 22.8 33.92"
     y="0"
     sodipodi:role="line"
     id="tspan88">−100</tspan></text>

</g><path
             d="m 741.598,1188.4 43.203,0"
             style="fill:none;stroke:#000000;stroke-opacity:1;stroke-width:4.99999;stroke-linecap:butt;stroke-linejoin:round;stroke-miterlimit:10;stroke-dasharray:none"
             id="path90" /><path
             d="m 5205.6,1188.4 -45.6,0"
             style="fill:none;stroke:#000000;stroke-opacity:1;stroke-width:4.99999;stroke-linecap:butt;stroke-linejoin:round;stroke-miterlimit:10;stroke-dasharray:none"
             id="path92" /><g
             id="g94"
             transform="scale(10,10)"><text
   transform="matrix(1,0,0,-1,37.4398,111.64)"
   id="text96"><tspan
     style="fill:#000000;fill-opacity:1;fill-rule:nonzero;stroke:none;font-family:Helvetica;font-variant:normal;font-weight:normal;font-size:20;writing-mode:lr;-inkscape-font-specification:Helvetica"
     x="0 11.68 22.8"
     y="0"
     sodipodi:role="line"
     id="tspan98">−80</tspan></text>

</g><path
             d="m 741.598,1894 43.203,0"
             style="fill:none;stroke:#000000;stroke-opacity:1;stroke-width:4.99999;stroke-linecap:butt;stroke-linejoin:round;stroke-miterlimit:10;stroke-dasharray:none"
             id="path100" /><path
             d="m 5205.6,1894 -45.6,0"
             style="fill:none;stroke:#000000;stroke-opacity:1;stroke-width:4.99999;stroke-linecap:butt;stroke-linejoin:round;stroke-miterlimit:10;stroke-dasharray:none"
             id="path102" /><g
             id="g104"
             transform="scale(10,10)"><text
   transform="matrix(1,0,0,-1,37.4398,182.2)"
   id="text106"><tspan
     style="fill:#000000;fill-opacity:1;fill-rule:nonzero;stroke:none;font-family:Helvetica;font-variant:normal;font-weight:normal;font-size:20;writing-mode:lr;-inkscape-font-specification:Helvetica"
     x="0 11.68 22.8"
     y="0"
     sodipodi:role="line"
     id="tspan108">−60</tspan></text>

</g><path
             d="m 741.598,2597.2 43.203,0"
             style="fill:none;stroke:#000000;stroke-opacity:1;stroke-width:4.99999;stroke-linecap:butt;stroke-linejoin:round;stroke-miterlimit:10;stroke-dasharray:none"
             id="path110" /><path
             d="m 5205.6,2597.2 -45.6,0"
             style="fill:none;stroke:#000000;stroke-opacity:1;stroke-width:4.99999;stroke-linecap:butt;stroke-linejoin:round;stroke-miterlimit:10;stroke-dasharray:none"
             id="path112" /><g
             id="g114"
             transform="scale(10,10)"><text
   transform="matrix(1,0,0,-1,37.4398,252.52)"
   id="text116"><tspan
     style="fill:#000000;fill-opacity:1;fill-rule:nonzero;stroke:none;font-family:Helvetica;font-variant:normal;font-weight:normal;font-size:20;writing-mode:lr;-inkscape-font-specification:Helvetica"
     x="0 11.68 22.8"
     y="0"
     sodipodi:role="line"
     id="tspan118">−40</tspan></text>

</g><path
             d="m 741.598,3302.8 43.203,0"
             style="fill:none;stroke:#000000;stroke-opacity:1;stroke-width:4.99999;stroke-linecap:butt;stroke-linejoin:round;stroke-miterlimit:10;stroke-dasharray:none"
             id="path120" /><path
             d="m 5205.6,3302.8 -45.6,0"
             style="fill:none;stroke:#000000;stroke-opacity:1;stroke-width:4.99999;stroke-linecap:butt;stroke-linejoin:round;stroke-miterlimit:10;stroke-dasharray:none"
             id="path122" /><g
             id="g124"
             transform="scale(10,10)"><text
   transform="matrix(1,0,0,-1,37.4398,323.08)"
   id="text126"><tspan
     style="fill:#000000;fill-opacity:1;fill-rule:nonzero;stroke:none;font-family:Helvetica;font-variant:normal;font-weight:normal;font-size:20;writing-mode:lr;-inkscape-font-specification:Helvetica"
     x="0 11.68 22.8"
     y="0"
     sodipodi:role="line"
     id="tspan128">−20</tspan></text>

</g><path
             d="m 741.598,4006 43.203,0"
             style="fill:none;stroke:#000000;stroke-opacity:1;stroke-width:4.99999;stroke-linecap:butt;stroke-linejoin:round;stroke-miterlimit:10;stroke-dasharray:none"
             id="path130" /><path
             d="m 5205.6,4006 -45.6,0"
             style="fill:none;stroke:#000000;stroke-opacity:1;stroke-width:4.99999;stroke-linecap:butt;stroke-linejoin:round;stroke-miterlimit:10;stroke-dasharray:none"
             id="path132" /><g
             id="g134"
             transform="scale(10,10)"><text
   transform="matrix(1,0,0,-1,60.2398,393.4)"
   id="text136"><tspan
     style="fill:#000000;fill-opacity:1;fill-rule:nonzero;stroke:none;font-family:Helvetica;font-variant:normal;font-weight:normal;font-size:20;writing-mode:lr;-inkscape-font-specification:Helvetica"
     x="0"
     y="0"
     id="tspan138">0</tspan></text>

</g><path
             d="m 741.598,482.797 4464.002,0"
             style="fill:none;stroke:#000000;stroke-opacity:1;stroke-width:4.99999;stroke-linecap:butt;stroke-linejoin:round;stroke-miterlimit:10;stroke-dasharray:none"
             id="path140" /><path
             d="m 741.598,4006 4464.002,0"
             style="fill:none;stroke:#000000;stroke-opacity:1;stroke-width:4.99999;stroke-linecap:butt;stroke-linejoin:round;stroke-miterlimit:10;stroke-dasharray:none"
             id="path142" /><path
             d="m 741.598,482.797 0,3523.203"
             style="fill:none;stroke:#000000;stroke-opacity:1;stroke-width:4.99999;stroke-linecap:butt;stroke-linejoin:round;stroke-miterlimit:10;stroke-dasharray:none"
             id="path144" /><path
             d="m 5205.6,482.797 0,3523.203"
             style="fill:none;stroke:#000000;stroke-opacity:1;stroke-width:4.99999;stroke-linecap:butt;stroke-linejoin:round;stroke-miterlimit:10;stroke-dasharray:none"
             id="path146" /></g></g><g
         id="g148"><g
           id="g150"
           clip-path="url(#clipPath152)"><path
             d="m 3868.8,1426 4.8,-4.8 4.8,-4.8 4.8,-4.8 4.8,-4.8 4.8,-4.8 4.8,-4.8 2.4,-4.8 4.8,-4.8 4.8,-4.8 4.8,-4.8 4.8,-2.4 4.8,-4.8 4.8,-2.4 2.4,0 4.8,-4.8 4.8,-2.4 4.8,-2.4 4.8,0 4.8,-2.4 4.8,-2.4 2.4,0 4.8,-2.4 14.4,0 4.8,2.4 4.8,2.4 2.4,2.4 4.8,2.4 4.8,2.4 4.8,4.8 4.8,4.8 4.8,7.2 4.8,9.6 2.4,12 4.8,19.2 4.8,31.2 4.8,45.6 4.8,84 4.8,93.6 4.8,74.4 2.4,55.2 4.8,40.8 4.8,31.2 4.8,26.4 4.8,24 4.8,19.2 4.8,16.8 4.8,16.8 2.4,14.4 4.8,12 4.8,12 4.8,12 4.8,9.6 4.8,9.6 4.8,9.6 2.4,7.2 4.8,4.8 4.8,2.4 52.8,0 4.8,-2.4 4.8,-4.8 4.8,-7.2 4.8,-9.6 4.8,-9.6 4.8,-9.6 2.4,-12 4.8,-12 4.8,-12 4.8,-14.4 4.8,-14.4 4.8,-19.2 4.8,-19.2 2.4,-24 4.8,-26.4 4.8,-31.2 4.8,-40.8 4.8,-52.8 4.8,-74.4 4.8,-105.6 2.4,-122.4 4.8,-93.6 4.8,-48 4.8,-21.6 4.8,-12 4.8,-9.6 4.8,-4.8 2.4,-2.4 4.8,-7.2 4.8,-2.4 4.8,-2.4 4.8,-2.4 14.4,0 2.4,-4.8 4.8,-4.8 4.8,0 4.8,-2.4 4.8,-4.8 4.8,-2.4 4.8,-2.4 16.8,0 4.8,2.4 4.8,2.4 4.8,4.8 2.4,2.4 4.8,2.4 4.8,0 4.8,-2.4 4.8,0 4.8,-2.4 4.8,-4.8 2.4,-2.4 4.8,-2.4 4.8,-2.4 4.8,-2.4 4.8,-2.4 4.8,-4.8 4.8,-2.4 2.4,-2.4 4.8,-2.4 4.8,-4.8 4.8,-2.4 4.8,-2.4 4.8,0 4.8,2.4 16.8,0 4.8,2.4 4.8,2.4 11.99,0 4.81,-2.4 4.8,-2.4 4.8,-2.4 4.8,-2.4 4.79,-2.4 4.81,-2.4 12,0 4.8,4.8 4.8,2.4 4.8,2.4 12,0 4.79,4.8 9.61,0 4.8,-2.4 4.8,2.4 2.4,4.8 4.8,4.8 4.8,2.4 4.79,2.4 9.61,0 4.8,-2.4 2.4,0 4.8,2.4 4.8,-2.4 19.2,0 2.39,2.4 4.81,0 4.8,-2.4 9.6,0 4.79,2.4 4.81,2.4 2.4,2.4 4.79,-2.4 4.81,-2.4 4.8,-2.4 4.8,-2.4 4.8,-2.4 4.79,-2.4 4.81,-2.4 2.4,-2.4 4.79,0 4.81,-2.4 4.8,-2.4 4.8,-7.2 4.8,-4.8 4.79,-4.8 2.41,-2.4 4.8,2.4 4.79,2.4 4.81,4.8 4.8,2.4 4.8,0 4.8,-2.4 2.4,2.4 9.6,0 4.79,-2.4 4.81,-2.4 4.8,0 4.8,2.4 2.4,2.4 4.8,-2.4 4.8,-4.8 4.8,-4.8 4.79,-2.4 4.81,0 4.8,2.4 2.39,0 4.81,4.8 4.8,4.8 4.8,7.2 4.8,7.2 4.79,2.4 4.81,2.4 2.4,-2.4 4.79,0 4.81,-2.4 4.8,-2.4 9.6,0 4.79,2.4 2.41,-2.4 4.8,-2.4 4.79,2.4 4.81,2.4 9.6,0 4.8,-2.4 4.79,-2.4 7.21,0 4.79,2.4 4.81,0 4.8,-2.4 4.8,2.4 4.8,2.4 2.4,2.4 4.8,2.4 4.8,0 4.79,-2.4 9.61,0 4.8,-2.4 2.4,-4.8 4.8,-2.4 4.8,-2.4 4.8,0 4.79,2.4 4.81,4.8 4.8,4.8 2.39,2.4 4.81,0 4.8,-2.4 4.8,-2.4 4.8,-4.8 4.79,-2.4 4.81,-2.4 2.4,-4.8 4.79,0 4.81,-2.4 9.6,0 4.8,4.8 4.79,2.4 2.41,2.4 4.8,-2.4 14.4,0 4.8,-2.4 4.8,-2.4 2.4,-2.4 4.8,-2.4 4.8,0 4.79,-2.4 4.81,-2.4 4.8,-2.4 4.8,2.4 4.8,0"
             style="fill:none;stroke:#0000ff;stroke-opacity:1;stroke-width:20;stroke-linecap:butt;stroke-linejoin:round;stroke-miterlimit:10;stroke-dasharray:none"
             id="path156" /><path
             d="m 2534.4,1990 4.8,4.8 4.8,4.8 4.8,2.4 4.8,4.8 4.8,4.8 2.4,2.4 4.8,4.8 4.8,2.4 4.8,4.8 4.8,4.8 4.8,2.4 4.8,4.8 2.4,4.8 4.8,4.8 4.8,4.8 4.8,4.8 4.8,7.2 4.8,9.6 4.8,9.6 2.4,14.4 4.8,14.4 4.8,19.2 4.8,21.6 4.8,21.6 4.8,28.8 4.8,26.4 2.4,28.8 4.8,28.8 4.8,28.8 4.8,28.8 4.8,28.8 4.8,28.8 4.8,28.8 2.4,26.4 4.8,28.8 4.8,28.8 4.8,28.8 4.8,31.2 4.8,33.6 4.8,31.2 2.4,28.8 4.8,26.4 4.8,26.4 4.8,26.4 4.8,28.8 4.8,33.6 4.8,36 4.8,43.2 2.4,57.6 4.8,72 4.8,108 4.8,110.4 4.8,81.6 4.8,57.6 4.8,43.19 2.4,33.61 4.8,28.8 4.8,24 4.8,19.2 4.8,19.2 4.8,16.8 4.8,14.39 2.4,12 4.8,12 4.8,12 4.8,9.61 4.8,9.6 4.8,9.6 4.8,7.19 2.4,4.81 4.8,2.4 4.8,2.4 36,0 4.8,-2.4 9.6,0 2.4,-2.4 4.8,-4.81 4.8,-4.79 4.8,-9.6 4.8,-9.61 4.8,-9.59 4.8,-12 2.4,-12 4.8,-14.41 4.8,-12 4.8,-16.79 4.8,-19.21 4.8,-19.19 4.8,-21.6 4.8,-26.4 2.4,-33.6 4.8,-38.4 4.8,-52.81 4.8,-74.39 4.8,-110.4 4.8,-141.6 4.8,-139.2 2.4,-96 4.8,-55.2 4.8,-33.6 4.8,-28.8 4.8,-28.8 4.8,-26.4 4.8,-28.8 2.4,-26.4 4.8,-28.8 4.8,-31.2 4.8,-28.8 4.8,-31.2 4.8,-28.8 4.8,-28.8 2.4,-31.2 4.8,-28.8 4.8,-28.8 4.8,-28.8 4.8,-28.8 4.8,-26.4 4.8,-26.4 2.4,-24 4.8,-21.6 4.8,-19.2 4.8,-16.8 4.8,-14.4 4.8,-12 4.8,-9.6 2.4,-9.6 4.8,-4.8 4.8,-4.8 4.8,-4.8 4.8,-2.4 4.8,0 4.8,-2.4 2.4,0 4.8,-2.4 9.6,0 4.8,-2.4 52.8,0 4.8,2.4 52.8,0 4.8,-2.4 14.4,0 4.8,-2.4 4.8,0 2.4,-2.4 4.8,-2.4 4.8,0 4.8,-2.4 4.8,0 4.8,-2.4 4.8,-2.4 2.4,-2.4 4.8,-2.4 4.8,-2.4 4.8,-2.4 4.8,-2.4 4.8,-2.4 4.8,-2.4 2.4,-2.4 4.8,-2.4 4.8,-2.4 4.8,-4.8 4.8,-2.4 4.8,-2.4 4.8,-2.4 2.4,-4.8 4.8,-2.4 4.8,-4.8 4.8,-2.4 4.8,-4.8 4.8,-2.4 4.8,-2.4 4.8,-4.8 2.4,-2.4 4.8,-4.8 4.8,-2.4 4.8,-4.8 4.8,-2.4 4.8,-4.8 4.8,-2.4 2.4,-4.8 4.8,-4.8 4.8,-2.4 4.8,-4.8 4.8,-4.8 4.8,-4.8 4.8,-4.8 2.4,-2.4 4.8,-4.8 4.8,-4.8 4.8,-4.8 4.8,-4.8 4.8,-4.8 4.8,-7.2 2.4,-4.8 4.8,-4.8 4.8,-4.8 4.8,-7.2 4.8,-4.8 4.8,-4.8 4.8,-7.2 2.4,-4.8 4.8,-7.2 4.8,-4.8 4.8,-7.2 4.8,-7.2 4.8,-7.2 4.8,-7.2 2.4,-4.8 4.8,-7.2 4.8,-7.2 4.8,-7.2 4.8,-9.6 4.8,-7.2 4.8,-7.2 4.8,-7.2 2.4,-7.2 4.8,-7.2 4.8,-7.2 4.8,-7.2 4.8,-7.2 4.8,-7.2 4.8,-7.2 2.4,-7.2 4.8,-7.2 4.8,-4.8 4.8,-7.2 4.8,-7.2 4.8,-4.8 4.8,-7.2 2.4,-4.8 4.8,-7.2 4.8,-4.8 4.8,-7.2 4.8,-4.8 4.8,-7.2 4.8,-4.8 2.4,-4.8 4.8,-4.8 4.8,-4.8 4.8,-4.8 4.8,-4.8 4.8,-4.8 4.8,-4.8 2.4,-4.8 4.8,-4.8 4.8,-4.8 4.8,-4.8 4.8,-4.8 4.8,-4.8 4.8,-4.8 2.4,-4.8 4.8,-4.8 4.8,-4.8 4.8,-4.8 4.8,-4.8 4.8,-4.8 4.8,-4.8 2.4,-4.8 4.8,-7.2 4.8,-4.8 4.8,-4.8 4.8,-4.8 4.8,-7.2 4.8,-4.8 4.8,-2.4 2.4,-4.8"
             style="fill:none;stroke:#0000ff;stroke-opacity:1;stroke-width:20;stroke-linecap:butt;stroke-linejoin:round;stroke-miterlimit:10;stroke-dasharray:none"
             id="path158" /><path
             d="m 1200,1255.6 4.8,2.4 4.8,2.4 4.8,2.4 4.8,0 2.4,2.4 4.8,4.8 4.8,2.4 4.8,2.4 4.8,2.4 4.8,4.8 4.8,4.8 2.4,4.8 4.8,4.8 4.8,4.8 4.8,7.2 4.8,4.8 4.8,7.2 4.8,4.8 2.4,7.2 4.8,7.2 4.8,9.6 4.8,7.2 4.8,9.6 4.8,7.2 4.8,12 2.4,9.6 4.8,12 4.8,14.4 4.8,14.4 4.8,16.8 4.8,21.6 4.8,21.6 2.4,24 4.8,24 4.8,26.4 4.8,28.8 4.8,28.8 4.8,31.2 4.8,28.8 2.4,28.8 4.8,28.8 4.8,28.8 4.8,28.8 4.8,26.4 4.8,28.8 4.8,28.8 4.8,28.8 2.4,28.8 4.8,26.4 4.8,31.2 4.8,33.6 4.8,31.2 4.8,31.2 4.8,28.8 2.4,26.4 4.8,26.4 4.8,31.2 4.8,31.2 4.8,33.6 4.8,38.4 4.8,48 2.4,62.4 4.8,84 4.8,112.8 4.8,100.8 4.8,76.8 4.8,52.8 4.8,40.8 2.4,31.2 4.8,26.4 4.8,24 4.8,19.2 4.8,16.8 4.8,14.4 4.8,14.4 2.4,14.4 4.8,12 4.8,9.6 4.8,9.6 4.8,9.6 4.8,9.6 4.8,7.2 2.4,4.8 4.8,0 4.8,2.4 36,0 4.8,-2.4 9.6,0 4.8,-2.4 2.4,-4.8 4.8,-7.2 4.8,-9.6 4.8,-9.6 4.8,-12 4.8,-12 4.8,-12 2.4,-12 4.8,-14.4 4.8,-16.8 4.8,-19.2 4.8,-19.2 4.8,-24 4.8,-28.8 2.4,-33.6 4.8,-43.2 4.8,-60 4.8,-86.4 4.8,-129.6 4.8,-146.4 4.8,-132 2.4,-72 4.8,-40.8 4.8,-33.6 4.8,-28.8 4.8,-28.8 4.8,-26.4 4.8,-28.8 2.4,-28.8 4.8,-31.2 4.8,-31.2 4.8,-31.2 4.8,-31.2 4.8,-31.2 4.8,-33.6 2.4,-31.2 4.8,-31.2 4.8,-33.6 4.8,-31.2 4.8,-33.6 4.8,-31.2 4.8,-28.8 2.4,-31.2 4.8,-26.4 4.8,-26.4 4.8,-24 4.8,-19.2 4.8,-19.2 4.8,-14.4 4.8,-9.6 2.4,-7.2 4.8,-7.2 4.8,-2.4 4.8,-2.4 4.8,-2.4 21.6,0 4.8,2.4 4.8,0 4.8,2.4 4.8,0 2.4,2.4 4.8,0 4.8,2.4 4.8,4.8 4.8,2.4 4.8,2.4 4.8,2.4 2.4,0 4.8,4.8 4.8,2.4 4.8,2.4 4.8,2.4 4.8,0 4.8,4.8 2.4,2.4 4.8,4.8 4.8,2.4 4.8,4.8 4.8,2.4 4.8,2.4 4.8,2.4 2.4,2.4 4.8,4.8 4.8,2.4 4.8,4.8 4.8,2.4 4.8,4.8 4.8,2.4 2.4,4.8 4.8,4.8 4.8,2.4 4.8,2.4 4.8,4.8 4.8,2.4 4.8,4.8 2.4,2.4 4.8,2.4 4.8,2.4 4.8,4.8 4.8,2.4 4.8,4.8 4.8,2.4 4.8,4.8 2.4,2.4 4.8,4.8 4.8,2.4 4.8,2.4 4.8,4.8 4.8,4.8 4.8,2.4 2.4,4.8 4.8,2.4 4.8,4.8 4.8,2.4 4.8,4.8 4.8,4.8 4.8,4.8 2.4,4.8 4.8,2.4 4.8,4.8 4.8,4.8 4.8,2.4 4.8,4.8 4.8,4.8 2.4,4.8 4.8,4.8 4.8,4.8 4.8,4.8 4.8,4.8 4.8,4.8 4.8,4.8 2.4,2.4 4.8,7.2 4.8,4.8 4.8,4.8 4.8,4.8 4.8,4.8 4.8,4.8 2.4,7.2 4.8,4.8 4.8,4.8 4.8,4.8 4.8,4.8 4.8,7.2 4.8,4.8 2.4,4.8 4.8,7.2 4.8,4.8 4.8,4.8 4.8,4.8 4.8,7.2 4.8,4.8 4.8,4.8 2.4,7.2 4.8,4.8 4.8,7.2 4.8,4.8 4.8,7.2 4.8,4.8 4.8,4.8 2.4,7.2 4.8,4.8 4.8,4.8 4.8,7.2 4.8,4.8 4.8,4.8 4.8,7.2 2.4,4.8 4.8,4.8 4.8,4.8 4.8,7.2 4.8,4.8 4.8,4.8 4.8,7.2 2.4,4.8 4.8,4.8 4.8,4.8 4.8,4.8 4.8,7.2 4.8,4.8 4.8,4.8 2.4,4.8 4.8,4.8 4.8,4.8 4.8,4.8 4.8,4.8 4.8,4.8 4.8,4.8 2.4,4.8 4.8,4.8 4.8,4.8 4.8,4.8 4.8,2.4 4.8,4.8 4.8,4.8 4.8,4.8 2.4,2.4 4.8,4.8"
             style="fill:none;stroke:#0000ff;stroke-opacity:1;stroke-width:20;stroke-linecap:butt;stroke-linejoin:round;stroke-miterlimit:10;stroke-dasharray:none"
             id="path160" /><path
             d="m 741.598,1164.4 2.402,2.4 9.598,0 4.8,2.4 4.801,0 4.801,2.4 4.801,-2.4 2.398,0 4.801,7.2 4.801,4.8 4.797,2.4 4.8,4.8 4.801,4.8 4.801,2.4 2.398,0 4.801,4.8 4.801,0 4.801,2.4 4.797,2.4 4.8,2.4 4.801,0 2.399,-2.4 4.8,-2.4 9.602,0 4.801,-2.4 9.597,0 2.403,2.4 24,0 4.797,-2.4 2.402,-2.4 4.801,-2.4 4.797,2.4 4.8,2.4 4.801,0 4.801,-2.4 4.801,-4.8 2.398,-2.4 4.801,-2.4 4.801,-4.8 4.797,-2.4 4.8,0 4.801,2.4 4.801,0 2.398,2.4 28.801,0 4.801,2.4 7.2,0 4.8,2.4 4.8,7.2 4.8,2.4 9.6,0 2.4,4.8 4.8,2.4 4.8,2.4 4.8,0 4.8,2.4 9.6,0 2.4,4.8 4.8,4.8 4.8,4.8 4.8,2.4 4.8,2.4 4.8,2.4 4.8,4.8 2.4,0 4.8,2.4 24,0 2.4,2.4 4.8,2.4 4.8,0 4.8,2.4 4.8,2.4 4.8,2.4 4.8,2.4 2.4,0 4.8,-2.4 4.8,0 4.8,2.4 9.6,0 4.8,-2.4 2.4,0 4.8,2.4 9.6,0"
             style="fill:none;stroke:#0000ff;stroke-opacity:1;stroke-width:20;stroke-linecap:butt;stroke-linejoin:round;stroke-miterlimit:10;stroke-dasharray:none"
             id="path162" /></g></g><g
         id="g164"><g
           id="g166"
           clip-path="url(#clipPath168)"><g
             id="g172"
             transform="scale(10,10)"><text
   transform="matrix(1,0,0,-1,220.56,2.68008)"
   id="text174"><tspan
     style="fill:#000000;fill-opacity:1;fill-rule:nonzero;stroke:none;font-family:Helvetica;font-variant:normal;font-weight:normal;font-size:20;writing-mode:lr;-inkscape-font-specification:Helvetica"
     x="0 18.88 30 40 51.12 55.56 66.68 77.8 88.92 94.48 105.6 111.16 117.82 128.94 145.6"
     y="0"
     sodipodi:role="line"
     id="tspan176">Wavelength (nm)</tspan></text>

<text
   transform="matrix(0,1,1,0,17.2801,144.28)"
   id="text178"><tspan
     style="font-size:20px;font-variant:normal;font-weight:normal;writing-mode:lr-tb;fill:#000000;fill-opacity:1;fill-rule:nonzero;stroke:none;font-family:Helvetica;-inkscape-font-specification:Helvetica"
     x="0"
     sodipodi:role="line"
     id="tspan180"
     y="0">Power (dBm)</tspan></text>

</g><path
             d="m 1432.8,3134.8 3081.6,4.8"
             style="fill:none;stroke:#000000;stroke-opacity:1;stroke-width:20;stroke-linecap:butt;stroke-linejoin:round;stroke-miterlimit:10;stroke-dasharray:60;stroke-dashoffset:0"
             id="path182" /><path
             d="m 3511.2,2081.2 912,2.4"
             style="fill:none;stroke:#000000;stroke-opacity:1;stroke-width:20;stroke-linecap:butt;stroke-linejoin:round;stroke-miterlimit:10;stroke-dasharray:60;stroke-dashoffset:0"
             id="path184" /><path
             d="m 3710.4,3050.8 7.2,-866.4"
             style="fill:none;stroke:#000000;stroke-opacity:1;stroke-width:20;stroke-linecap:butt;stroke-linejoin:round;stroke-miterlimit:10;stroke-dasharray:none"
             id="path186" /><path
             d="m 3748.8,3014.8 -38.4,100.8 0,-64.8"
             style="fill:#000000;fill-opacity:1;fill-rule:evenodd;stroke:none"
             id="path188" /><path
             d="m 3748.8,3014.8 -38.4,100.8 0,-64.8 38.4,-36"
             style="fill:none;stroke:#000000;stroke-opacity:1;stroke-width:20;stroke-linecap:butt;stroke-linejoin:round;stroke-miterlimit:10;stroke-dasharray:none"
             id="path190" /><path
             d="m 3710.4,3115.6 -36,-100.8 36,36"
             style="fill:#000000;fill-opacity:1;fill-rule:evenodd;stroke:none"
             id="path192" /><path
             d="m 3710.4,3115.6 -36,-100.8 36,36 0,64.8"
             style="fill:none;stroke:#000000;stroke-opacity:1;stroke-width:20;stroke-linecap:butt;stroke-linejoin:round;stroke-miterlimit:10;stroke-dasharray:none"
             id="path194" /><path
             d="m 3756,2220.4 -36,-100.8 -2.4,64.8"
             style="fill:#000000;fill-opacity:1;fill-rule:evenodd;stroke:none"
             id="path196" /><path
             d="m 3756,2220.4 -36,-100.8 -2.4,64.8 38.4,36"
             style="fill:none;stroke:#000000;stroke-opacity:1;stroke-width:20;stroke-linecap:butt;stroke-linejoin:round;stroke-miterlimit:10;stroke-dasharray:none"
             id="path198" /><path
             d="m 3720,2119.6 -38.4,98.4 36,-33.6"
             style="fill:#000000;fill-opacity:1;fill-rule:evenodd;stroke:none"
             id="path200" /><path
             d="m 3720,2119.6 -38.4,98.4 36,-33.6 2.4,-64.8"
             style="fill:none;stroke:#000000;stroke-opacity:1;stroke-width:20;stroke-linecap:butt;stroke-linejoin:round;stroke-miterlimit:10;stroke-dasharray:none"
             id="path202" /><g
             id="g204"
             transform="scale(10,10)"><text
   transform="matrix(1,0,0,-1,379.2,263.8)"
   id="text206"><tspan
     style="fill:#000000;fill-opacity:1;fill-rule:nonzero;stroke:none;font-family:Helvetica;font-variant:normal;font-weight:normal;font-size:20;writing-mode:lr;-inkscape-font-specification:Helvetica"
     x="0"
     y="0"
     id="tspan208">P</tspan></text>

<text
   transform="matrix(1,0,0,-1,392.4,253.96016)"
   id="text210"><tspan
     style="fill:#000000;fill-opacity:1;fill-rule:nonzero;stroke:none;font-family:Helvetica;font-variant:normal;font-weight:normal;font-size:16;writing-mode:lr;-inkscape-font-specification:Helvetica"
     x="0 3.552 12.448 16 24.896"
     y="0"
     sodipodi:role="line"
     id="tspan212">idler</tspan></text>

<text
   transform="matrix(1,0,0,-1,422.4,263.8)"
   id="text214"><tspan
     style="fill:#000000;fill-opacity:1;fill-rule:nonzero;stroke:none;font-family:Helvetica;font-variant:normal;font-weight:normal;font-size:20;writing-mode:lr;-inkscape-font-specification:Helvetica"
     x="0 5.56"
     y="0"
     sodipodi:role="line"
     id="tspan216">/P</tspan></text>

<text
   transform="matrix(1,0,0,-1,441.1199,253.96016)"
   id="text218"><tspan
     style="fill:#000000;fill-opacity:1;fill-rule:nonzero;stroke:none;font-family:Helvetica;font-variant:normal;font-weight:normal;font-size:16;writing-mode:lr;-inkscape-font-specification:Helvetica"
     x="0 8 11.552 20.448 29.344 38.24"
     y="0"
     sodipodi:role="line"
     id="tspan220">signal</tspan></text>

<text
   transform="matrix(1,0,0,-1,258.7199,375.64016)"
   id="text222"><tspan
     style="fill:#000000;fill-opacity:1;fill-rule:nonzero;stroke:none;font-family:Helvetica;font-variant:normal;font-weight:normal;font-size:20;writing-mode:lr;-inkscape-font-specification:Helvetica"
     x="0 11.12 22.24 38.9"
     y="0"
     sodipodi:role="line"
     id="tspan224">pump</tspan><tspan
     style="fill:#000000;fill-opacity:1;fill-rule:nonzero;stroke:none;font-family:Helvetica;font-variant:normal;font-weight:normal;font-size:20;writing-mode:lr;-inkscape-font-specification:Helvetica"
     x="-127.2 -117.2 -112.76 -101.64 -90.52 -79.4"
     y="280.56"
     sodipodi:role="line"
     id="tspan226">signal</tspan><tspan
     style="fill:#000000;fill-opacity:1;fill-rule:nonzero;stroke:none;font-family:Helvetica;font-variant:normal;font-weight:normal;font-size:20;writing-mode:lr;-inkscape-font-specification:Helvetica"
     x="135.36 139.8 150.92 155.36 166.48"
     y="281.27992"
     sodipodi:role="line"
     id="tspan228">idler</tspan></text>

</g></g></g></g></g></svg>